<mxfile host="Electron" agent="Mozilla/5.0 (X11; Linux x86_64) AppleWebKit/537.36 (KHTML, like Gecko) draw.io/28.2.5 Chrome/138.0.7204.251 Electron/37.6.1 Safari/537.36" version="28.2.5">
  <diagram name="Page-1" id="g0sAFNmoQWdFIZ_RzV34">
    <mxGraphModel dx="2038" dy="672" grid="1" gridSize="10" guides="1" tooltips="1" connect="1" arrows="1" fold="1" page="1" pageScale="1" pageWidth="850" pageHeight="1100" math="0" shadow="0">
      <root>
        <mxCell id="0" />
        <mxCell id="1" parent="0" />
        <mxCell id="QNO8xaze4olG29HQlAjJ-1" value="Login" style="rounded=0;whiteSpace=wrap;html=1;" vertex="1" parent="1">
          <mxGeometry x="230" y="290" width="120" height="60" as="geometry" />
        </mxCell>
        <mxCell id="QNO8xaze4olG29HQlAjJ-2" value="Logout" style="rounded=0;whiteSpace=wrap;html=1;" vertex="1" parent="1">
          <mxGeometry x="720" y="450" width="120" height="60" as="geometry" />
        </mxCell>
        <mxCell id="QNO8xaze4olG29HQlAjJ-4" value="Home" style="rounded=0;whiteSpace=wrap;html=1;" vertex="1" parent="1">
          <mxGeometry x="70" y="450" width="440" height="60" as="geometry" />
        </mxCell>
        <mxCell id="QNO8xaze4olG29HQlAjJ-5" value="" style="endArrow=classic;html=1;rounded=0;entryX=0.5;entryY=0;entryDx=0;entryDy=0;exitX=0.5;exitY=1;exitDx=0;exitDy=0;edgeStyle=orthogonalEdgeStyle;startArrow=none;startFill=0;" edge="1" parent="1" source="QNO8xaze4olG29HQlAjJ-1" target="QNO8xaze4olG29HQlAjJ-4">
          <mxGeometry width="50" height="50" relative="1" as="geometry">
            <mxPoint x="260" y="410" as="sourcePoint" />
            <mxPoint x="310" y="360" as="targetPoint" />
          </mxGeometry>
        </mxCell>
        <mxCell id="QNO8xaze4olG29HQlAjJ-6" value="Search Book" style="rounded=0;whiteSpace=wrap;html=1;" vertex="1" parent="1">
          <mxGeometry x="-200" y="770" width="120" height="60" as="geometry" />
        </mxCell>
        <mxCell id="QNO8xaze4olG29HQlAjJ-7" value="View Books" style="rounded=0;whiteSpace=wrap;html=1;" vertex="1" parent="1">
          <mxGeometry x="-20" y="770" width="120" height="60" as="geometry" />
        </mxCell>
        <mxCell id="QNO8xaze4olG29HQlAjJ-8" value="View Profile" style="rounded=0;whiteSpace=wrap;html=1;" vertex="1" parent="1">
          <mxGeometry x="150" y="770" width="120" height="60" as="geometry" />
        </mxCell>
        <mxCell id="QNO8xaze4olG29HQlAjJ-9" value="Register Account" style="rounded=0;whiteSpace=wrap;html=1;" vertex="1" parent="1">
          <mxGeometry x="-40" y="295" width="120" height="60" as="geometry" />
        </mxCell>
        <mxCell id="QNO8xaze4olG29HQlAjJ-10" value="" style="endArrow=classic;html=1;rounded=0;entryX=-0.008;entryY=0.578;entryDx=0;entryDy=0;exitX=1;exitY=0.5;exitDx=0;exitDy=0;entryPerimeter=0;startArrow=classic;startFill=1;" edge="1" parent="1" source="QNO8xaze4olG29HQlAjJ-9" target="QNO8xaze4olG29HQlAjJ-1">
          <mxGeometry width="50" height="50" relative="1" as="geometry">
            <mxPoint x="210" y="240" as="sourcePoint" />
            <mxPoint x="260" y="190" as="targetPoint" />
          </mxGeometry>
        </mxCell>
        <mxCell id="QNO8xaze4olG29HQlAjJ-11" value="Update Profile" style="rounded=0;whiteSpace=wrap;html=1;" vertex="1" parent="1">
          <mxGeometry x="150" y="910" width="120" height="60" as="geometry" />
        </mxCell>
        <mxCell id="QNO8xaze4olG29HQlAjJ-13" value="View Book" style="rounded=0;whiteSpace=wrap;html=1;" vertex="1" parent="1">
          <mxGeometry x="-20" y="910" width="120" height="60" as="geometry" />
        </mxCell>
        <mxCell id="QNO8xaze4olG29HQlAjJ-14" value="Borrow History" style="rounded=0;whiteSpace=wrap;html=1;" vertex="1" parent="1">
          <mxGeometry x="320" y="770" width="120" height="60" as="geometry" />
        </mxCell>
        <mxCell id="QNO8xaze4olG29HQlAjJ-15" value="Reserved Books" style="rounded=0;whiteSpace=wrap;html=1;" vertex="1" parent="1">
          <mxGeometry x="500" y="770" width="120" height="60" as="geometry" />
        </mxCell>
        <mxCell id="QNO8xaze4olG29HQlAjJ-16" value="Overdue Books" style="rounded=0;whiteSpace=wrap;html=1;" vertex="1" parent="1">
          <mxGeometry x="670" y="770" width="120" height="60" as="geometry" />
        </mxCell>
        <mxCell id="QNO8xaze4olG29HQlAjJ-17" value="Payment" style="rounded=0;whiteSpace=wrap;html=1;" vertex="1" parent="1">
          <mxGeometry x="-370" y="770" width="120" height="60" as="geometry" />
        </mxCell>
        <mxCell id="QNO8xaze4olG29HQlAjJ-19" value="Statistics" style="rounded=0;whiteSpace=wrap;html=1;" vertex="1" parent="1">
          <mxGeometry x="840" y="770" width="120" height="60" as="geometry" />
        </mxCell>
        <mxCell id="QNO8xaze4olG29HQlAjJ-20" value="Popular Books" style="rounded=0;whiteSpace=wrap;html=1;" vertex="1" parent="1">
          <mxGeometry x="710" y="1210" width="120" height="60" as="geometry" />
        </mxCell>
        <mxCell id="QNO8xaze4olG29HQlAjJ-21" value="Popular Genre" style="rounded=0;whiteSpace=wrap;html=1;" vertex="1" parent="1">
          <mxGeometry x="1000" y="1210" width="120" height="60" as="geometry" />
        </mxCell>
        <mxCell id="QNO8xaze4olG29HQlAjJ-22" value="" style="endArrow=classic;html=1;rounded=0;entryX=1;entryY=0.5;entryDx=0;entryDy=0;exitX=0.5;exitY=1;exitDx=0;exitDy=0;edgeStyle=orthogonalEdgeStyle;" edge="1" parent="1" source="QNO8xaze4olG29HQlAjJ-19" target="QNO8xaze4olG29HQlAjJ-20">
          <mxGeometry width="50" height="50" relative="1" as="geometry">
            <mxPoint x="840" y="910" as="sourcePoint" />
            <mxPoint x="890" y="860" as="targetPoint" />
          </mxGeometry>
        </mxCell>
        <mxCell id="QNO8xaze4olG29HQlAjJ-23" value="" style="endArrow=classic;html=1;rounded=0;exitX=0.5;exitY=1;exitDx=0;exitDy=0;entryX=0;entryY=0.5;entryDx=0;entryDy=0;edgeStyle=orthogonalEdgeStyle;startArrow=classic;startFill=1;" edge="1" parent="1" source="QNO8xaze4olG29HQlAjJ-19" target="QNO8xaze4olG29HQlAjJ-21">
          <mxGeometry width="50" height="50" relative="1" as="geometry">
            <mxPoint x="960" y="890" as="sourcePoint" />
            <mxPoint x="1010" y="840" as="targetPoint" />
          </mxGeometry>
        </mxCell>
        <mxCell id="QNO8xaze4olG29HQlAjJ-25" value="" style="endArrow=none;startArrow=classic;html=1;rounded=0;exitX=1;exitY=0.5;exitDx=0;exitDy=0;entryX=0.5;entryY=0;entryDx=0;entryDy=0;edgeStyle=orthogonalEdgeStyle;startFill=1;endFill=0;" edge="1" parent="1" source="QNO8xaze4olG29HQlAjJ-1" target="QNO8xaze4olG29HQlAjJ-2">
          <mxGeometry width="50" height="50" relative="1" as="geometry">
            <mxPoint x="630" y="380" as="sourcePoint" />
            <mxPoint x="680" y="330" as="targetPoint" />
          </mxGeometry>
        </mxCell>
        <mxCell id="QNO8xaze4olG29HQlAjJ-26" value="" style="endArrow=classic;html=1;rounded=0;entryX=0;entryY=0.5;entryDx=0;entryDy=0;exitX=1;exitY=0.5;exitDx=0;exitDy=0;" edge="1" parent="1" source="QNO8xaze4olG29HQlAjJ-4" target="QNO8xaze4olG29HQlAjJ-2">
          <mxGeometry width="50" height="50" relative="1" as="geometry">
            <mxPoint x="580" y="510" as="sourcePoint" />
            <mxPoint x="630" y="460" as="targetPoint" />
          </mxGeometry>
        </mxCell>
        <mxCell id="QNO8xaze4olG29HQlAjJ-27" value="" style="rhombus;whiteSpace=wrap;html=1;" vertex="1" parent="1">
          <mxGeometry x="250" y="590" width="80" height="80" as="geometry" />
        </mxCell>
        <mxCell id="QNO8xaze4olG29HQlAjJ-28" value="" style="endArrow=classic;startArrow=classic;html=1;rounded=0;entryX=0.5;entryY=1;entryDx=0;entryDy=0;exitX=0.5;exitY=0;exitDx=0;exitDy=0;" edge="1" parent="1" source="QNO8xaze4olG29HQlAjJ-27" target="QNO8xaze4olG29HQlAjJ-4">
          <mxGeometry width="50" height="50" relative="1" as="geometry">
            <mxPoint x="250" y="580" as="sourcePoint" />
            <mxPoint x="300" y="530" as="targetPoint" />
          </mxGeometry>
        </mxCell>
        <mxCell id="QNO8xaze4olG29HQlAjJ-29" value="" style="endArrow=classic;startArrow=classic;html=1;rounded=0;exitX=0.5;exitY=0;exitDx=0;exitDy=0;entryX=0.5;entryY=1;entryDx=0;entryDy=0;edgeStyle=orthogonalEdgeStyle;" edge="1" parent="1" source="QNO8xaze4olG29HQlAjJ-8" target="QNO8xaze4olG29HQlAjJ-27">
          <mxGeometry width="50" height="50" relative="1" as="geometry">
            <mxPoint x="220" y="730" as="sourcePoint" />
            <mxPoint x="270" y="680" as="targetPoint" />
          </mxGeometry>
        </mxCell>
        <mxCell id="QNO8xaze4olG29HQlAjJ-30" value="" style="endArrow=classic;startArrow=classic;html=1;rounded=0;entryX=0.5;entryY=1;entryDx=0;entryDy=0;exitX=0.5;exitY=0;exitDx=0;exitDy=0;edgeStyle=orthogonalEdgeStyle;" edge="1" parent="1" source="QNO8xaze4olG29HQlAjJ-14" target="QNO8xaze4olG29HQlAjJ-27">
          <mxGeometry width="50" height="50" relative="1" as="geometry">
            <mxPoint x="330" y="740" as="sourcePoint" />
            <mxPoint x="380" y="690" as="targetPoint" />
          </mxGeometry>
        </mxCell>
        <mxCell id="QNO8xaze4olG29HQlAjJ-31" value="" style="endArrow=classic;startArrow=classic;html=1;rounded=0;exitX=0.5;exitY=0;exitDx=0;exitDy=0;entryX=0;entryY=0.5;entryDx=0;entryDy=0;edgeStyle=orthogonalEdgeStyle;" edge="1" parent="1" source="QNO8xaze4olG29HQlAjJ-7" target="QNO8xaze4olG29HQlAjJ-27">
          <mxGeometry width="50" height="50" relative="1" as="geometry">
            <mxPoint x="150" y="700" as="sourcePoint" />
            <mxPoint x="200" y="650" as="targetPoint" />
          </mxGeometry>
        </mxCell>
        <mxCell id="QNO8xaze4olG29HQlAjJ-32" value="" style="endArrow=classic;startArrow=classic;html=1;rounded=0;exitX=0.466;exitY=0.049;exitDx=0;exitDy=0;exitPerimeter=0;entryX=0;entryY=0.5;entryDx=0;entryDy=0;edgeStyle=orthogonalEdgeStyle;" edge="1" parent="1" source="QNO8xaze4olG29HQlAjJ-6" target="QNO8xaze4olG29HQlAjJ-27">
          <mxGeometry width="50" height="50" relative="1" as="geometry">
            <mxPoint x="-130" y="680" as="sourcePoint" />
            <mxPoint x="-80" y="630" as="targetPoint" />
            <Array as="points">
              <mxPoint x="-144" y="630" />
            </Array>
          </mxGeometry>
        </mxCell>
        <mxCell id="QNO8xaze4olG29HQlAjJ-33" value="" style="endArrow=classic;startArrow=classic;html=1;rounded=0;exitX=0.5;exitY=0;exitDx=0;exitDy=0;entryX=0;entryY=0.5;entryDx=0;entryDy=0;edgeStyle=orthogonalEdgeStyle;" edge="1" parent="1" source="QNO8xaze4olG29HQlAjJ-17" target="QNO8xaze4olG29HQlAjJ-27">
          <mxGeometry width="50" height="50" relative="1" as="geometry">
            <mxPoint x="-350" y="700" as="sourcePoint" />
            <mxPoint x="-300" y="650" as="targetPoint" />
          </mxGeometry>
        </mxCell>
        <mxCell id="QNO8xaze4olG29HQlAjJ-34" value="" style="endArrow=classic;startArrow=classic;html=1;rounded=0;exitX=0.5;exitY=0;exitDx=0;exitDy=0;entryX=1;entryY=0.5;entryDx=0;entryDy=0;edgeStyle=orthogonalEdgeStyle;" edge="1" parent="1" source="QNO8xaze4olG29HQlAjJ-15" target="QNO8xaze4olG29HQlAjJ-27">
          <mxGeometry width="50" height="50" relative="1" as="geometry">
            <mxPoint x="490" y="700" as="sourcePoint" />
            <mxPoint x="540" y="650" as="targetPoint" />
          </mxGeometry>
        </mxCell>
        <mxCell id="QNO8xaze4olG29HQlAjJ-35" value="" style="endArrow=classic;startArrow=classic;html=1;rounded=0;exitX=0.5;exitY=0;exitDx=0;exitDy=0;entryX=1;entryY=0.5;entryDx=0;entryDy=0;edgeStyle=orthogonalEdgeStyle;" edge="1" parent="1" source="QNO8xaze4olG29HQlAjJ-16" target="QNO8xaze4olG29HQlAjJ-27">
          <mxGeometry width="50" height="50" relative="1" as="geometry">
            <mxPoint x="640" y="700" as="sourcePoint" />
            <mxPoint x="690" y="650" as="targetPoint" />
          </mxGeometry>
        </mxCell>
        <mxCell id="QNO8xaze4olG29HQlAjJ-36" value="" style="endArrow=classic;startArrow=classic;html=1;rounded=0;exitX=0.5;exitY=0;exitDx=0;exitDy=0;entryX=1;entryY=0.5;entryDx=0;entryDy=0;edgeStyle=elbowEdgeStyle;" edge="1" parent="1" source="QNO8xaze4olG29HQlAjJ-19" target="QNO8xaze4olG29HQlAjJ-27">
          <mxGeometry width="50" height="50" relative="1" as="geometry">
            <mxPoint x="930" y="700" as="sourcePoint" />
            <mxPoint x="980" y="650" as="targetPoint" />
            <Array as="points">
              <mxPoint x="900" y="730" />
            </Array>
          </mxGeometry>
        </mxCell>
        <mxCell id="QNO8xaze4olG29HQlAjJ-37" value="Reserve Book" style="rounded=0;whiteSpace=wrap;html=1;" vertex="1" parent="1">
          <mxGeometry x="-20" y="1050" width="120" height="60" as="geometry" />
        </mxCell>
        <mxCell id="QNO8xaze4olG29HQlAjJ-38" value="" style="endArrow=classic;startArrow=classic;html=1;rounded=0;entryX=0.5;entryY=1;entryDx=0;entryDy=0;exitX=0.5;exitY=0;exitDx=0;exitDy=0;" edge="1" parent="1" source="QNO8xaze4olG29HQlAjJ-13" target="QNO8xaze4olG29HQlAjJ-7">
          <mxGeometry width="50" height="50" relative="1" as="geometry">
            <mxPoint x="-20" y="900" as="sourcePoint" />
            <mxPoint x="30" y="850" as="targetPoint" />
          </mxGeometry>
        </mxCell>
        <mxCell id="QNO8xaze4olG29HQlAjJ-39" value="" style="endArrow=classic;startArrow=classic;html=1;rounded=0;entryX=0.5;entryY=1;entryDx=0;entryDy=0;exitX=0.5;exitY=0;exitDx=0;exitDy=0;" edge="1" parent="1" source="QNO8xaze4olG29HQlAjJ-37" target="QNO8xaze4olG29HQlAjJ-13">
          <mxGeometry width="50" height="50" relative="1" as="geometry">
            <mxPoint x="40" y="1040" as="sourcePoint" />
            <mxPoint x="90" y="990" as="targetPoint" />
          </mxGeometry>
        </mxCell>
        <mxCell id="QNO8xaze4olG29HQlAjJ-40" value="" style="endArrow=classic;startArrow=classic;html=1;rounded=0;entryX=0.5;entryY=1;entryDx=0;entryDy=0;exitX=0.5;exitY=0;exitDx=0;exitDy=0;" edge="1" parent="1" source="QNO8xaze4olG29HQlAjJ-11" target="QNO8xaze4olG29HQlAjJ-8">
          <mxGeometry width="50" height="50" relative="1" as="geometry">
            <mxPoint x="170" y="900" as="sourcePoint" />
            <mxPoint x="220" y="850" as="targetPoint" />
          </mxGeometry>
        </mxCell>
        <mxCell id="QNO8xaze4olG29HQlAjJ-41" value="View Book" style="rounded=0;whiteSpace=wrap;html=1;" vertex="1" parent="1">
          <mxGeometry x="320" y="910" width="120" height="60" as="geometry" />
        </mxCell>
        <mxCell id="QNO8xaze4olG29HQlAjJ-42" value="" style="endArrow=classic;startArrow=classic;html=1;rounded=0;entryX=0.5;entryY=1;entryDx=0;entryDy=0;exitX=0.5;exitY=0;exitDx=0;exitDy=0;" edge="1" parent="1" source="QNO8xaze4olG29HQlAjJ-41" target="QNO8xaze4olG29HQlAjJ-14">
          <mxGeometry width="50" height="50" relative="1" as="geometry">
            <mxPoint x="330" y="900" as="sourcePoint" />
            <mxPoint x="380" y="850" as="targetPoint" />
          </mxGeometry>
        </mxCell>
        <mxCell id="QNO8xaze4olG29HQlAjJ-43" value="Reserve Book" style="rounded=0;whiteSpace=wrap;html=1;" vertex="1" parent="1">
          <mxGeometry x="320" y="1050" width="120" height="60" as="geometry" />
        </mxCell>
        <mxCell id="QNO8xaze4olG29HQlAjJ-44" value="" style="endArrow=classic;startArrow=classic;html=1;rounded=0;entryX=0.5;entryY=1;entryDx=0;entryDy=0;exitX=0.5;exitY=0;exitDx=0;exitDy=0;" edge="1" parent="1" source="QNO8xaze4olG29HQlAjJ-43" target="QNO8xaze4olG29HQlAjJ-41">
          <mxGeometry width="50" height="50" relative="1" as="geometry">
            <mxPoint x="340" y="1030" as="sourcePoint" />
            <mxPoint x="390" y="980" as="targetPoint" />
          </mxGeometry>
        </mxCell>
        <mxCell id="QNO8xaze4olG29HQlAjJ-45" value="View Book" style="rounded=0;whiteSpace=wrap;html=1;" vertex="1" parent="1">
          <mxGeometry x="500" y="910" width="120" height="60" as="geometry" />
        </mxCell>
        <mxCell id="QNO8xaze4olG29HQlAjJ-46" value="" style="endArrow=classic;startArrow=classic;html=1;rounded=0;exitX=0.5;exitY=0;exitDx=0;exitDy=0;entryX=0.5;entryY=1;entryDx=0;entryDy=0;" edge="1" parent="1" source="QNO8xaze4olG29HQlAjJ-45" target="QNO8xaze4olG29HQlAjJ-15">
          <mxGeometry width="50" height="50" relative="1" as="geometry">
            <mxPoint x="520" y="900" as="sourcePoint" />
            <mxPoint x="570" y="850" as="targetPoint" />
          </mxGeometry>
        </mxCell>
        <mxCell id="QNO8xaze4olG29HQlAjJ-47" value="View Book" style="rounded=0;whiteSpace=wrap;html=1;" vertex="1" parent="1">
          <mxGeometry x="670" y="910" width="120" height="60" as="geometry" />
        </mxCell>
        <mxCell id="QNO8xaze4olG29HQlAjJ-48" value="" style="endArrow=classic;startArrow=classic;html=1;rounded=0;entryX=0.5;entryY=1;entryDx=0;entryDy=0;" edge="1" parent="1" source="QNO8xaze4olG29HQlAjJ-47" target="QNO8xaze4olG29HQlAjJ-16">
          <mxGeometry width="50" height="50" relative="1" as="geometry">
            <mxPoint x="700" y="910" as="sourcePoint" />
            <mxPoint x="750" y="860" as="targetPoint" />
          </mxGeometry>
        </mxCell>
        <mxCell id="QNO8xaze4olG29HQlAjJ-49" value="View Book" style="rounded=0;whiteSpace=wrap;html=1;" vertex="1" parent="1">
          <mxGeometry x="710" y="1350" width="120" height="60" as="geometry" />
        </mxCell>
        <mxCell id="QNO8xaze4olG29HQlAjJ-50" value="" style="endArrow=classic;startArrow=classic;html=1;rounded=0;entryX=0.5;entryY=1;entryDx=0;entryDy=0;exitX=0.5;exitY=0;exitDx=0;exitDy=0;" edge="1" parent="1" source="QNO8xaze4olG29HQlAjJ-49" target="QNO8xaze4olG29HQlAjJ-20">
          <mxGeometry width="50" height="50" relative="1" as="geometry">
            <mxPoint x="740" y="1330" as="sourcePoint" />
            <mxPoint x="790" y="1280" as="targetPoint" />
          </mxGeometry>
        </mxCell>
        <mxCell id="QNO8xaze4olG29HQlAjJ-51" value="Reserve Book" style="rounded=0;whiteSpace=wrap;html=1;" vertex="1" parent="1">
          <mxGeometry x="710" y="1480" width="120" height="60" as="geometry" />
        </mxCell>
        <mxCell id="QNO8xaze4olG29HQlAjJ-52" value="" style="endArrow=classic;startArrow=classic;html=1;rounded=0;entryX=0.5;entryY=1;entryDx=0;entryDy=0;exitX=0.5;exitY=0;exitDx=0;exitDy=0;" edge="1" parent="1" source="QNO8xaze4olG29HQlAjJ-51" target="QNO8xaze4olG29HQlAjJ-49">
          <mxGeometry width="50" height="50" relative="1" as="geometry">
            <mxPoint x="720" y="1470" as="sourcePoint" />
            <mxPoint x="770" y="1420" as="targetPoint" />
          </mxGeometry>
        </mxCell>
        <mxCell id="QNO8xaze4olG29HQlAjJ-53" value="View Books" style="rounded=0;whiteSpace=wrap;html=1;" vertex="1" parent="1">
          <mxGeometry x="1000" y="1350" width="120" height="60" as="geometry" />
        </mxCell>
        <mxCell id="QNO8xaze4olG29HQlAjJ-54" value="" style="endArrow=classic;startArrow=classic;html=1;rounded=0;entryX=0.5;entryY=1;entryDx=0;entryDy=0;exitX=0.5;exitY=0;exitDx=0;exitDy=0;" edge="1" parent="1" source="QNO8xaze4olG29HQlAjJ-53" target="QNO8xaze4olG29HQlAjJ-21">
          <mxGeometry width="50" height="50" relative="1" as="geometry">
            <mxPoint x="1030" y="1330" as="sourcePoint" />
            <mxPoint x="1080" y="1280" as="targetPoint" />
          </mxGeometry>
        </mxCell>
        <mxCell id="QNO8xaze4olG29HQlAjJ-55" value="View Book" style="rounded=0;whiteSpace=wrap;html=1;" vertex="1" parent="1">
          <mxGeometry x="1000" y="1480" width="120" height="60" as="geometry" />
        </mxCell>
        <mxCell id="QNO8xaze4olG29HQlAjJ-56" value="Reserve Book" style="rounded=0;whiteSpace=wrap;html=1;" vertex="1" parent="1">
          <mxGeometry x="1000" y="1610" width="120" height="60" as="geometry" />
        </mxCell>
        <mxCell id="QNO8xaze4olG29HQlAjJ-57" value="" style="endArrow=classic;startArrow=classic;html=1;rounded=0;entryX=0.5;entryY=1;entryDx=0;entryDy=0;exitX=0.5;exitY=0;exitDx=0;exitDy=0;" edge="1" parent="1" source="QNO8xaze4olG29HQlAjJ-55" target="QNO8xaze4olG29HQlAjJ-53">
          <mxGeometry width="50" height="50" relative="1" as="geometry">
            <mxPoint x="1070" y="1480" as="sourcePoint" />
            <mxPoint x="1120" y="1430" as="targetPoint" />
          </mxGeometry>
        </mxCell>
        <mxCell id="QNO8xaze4olG29HQlAjJ-58" value="" style="endArrow=classic;startArrow=classic;html=1;rounded=0;entryX=0.5;entryY=1;entryDx=0;entryDy=0;exitX=0.5;exitY=0;exitDx=0;exitDy=0;" edge="1" parent="1" source="QNO8xaze4olG29HQlAjJ-56" target="QNO8xaze4olG29HQlAjJ-55">
          <mxGeometry width="50" height="50" relative="1" as="geometry">
            <mxPoint x="1000" y="1610" as="sourcePoint" />
            <mxPoint x="1050" y="1560" as="targetPoint" />
          </mxGeometry>
        </mxCell>
        <mxCell id="QNO8xaze4olG29HQlAjJ-59" value="Payment" style="rounded=0;whiteSpace=wrap;html=1;" vertex="1" parent="1">
          <mxGeometry x="670" y="1050" width="120" height="60" as="geometry" />
        </mxCell>
        <mxCell id="QNO8xaze4olG29HQlAjJ-60" value="" style="endArrow=classic;startArrow=classic;html=1;rounded=0;entryX=0.5;entryY=1;entryDx=0;entryDy=0;exitX=0.5;exitY=0;exitDx=0;exitDy=0;" edge="1" parent="1" source="QNO8xaze4olG29HQlAjJ-59" target="QNO8xaze4olG29HQlAjJ-47">
          <mxGeometry width="50" height="50" relative="1" as="geometry">
            <mxPoint x="720" y="1050" as="sourcePoint" />
            <mxPoint x="770" y="1000" as="targetPoint" />
          </mxGeometry>
        </mxCell>
      </root>
    </mxGraphModel>
  </diagram>
</mxfile>
